<?xml version="1.0" encoding="UTF-8"?>
<svg width="32px" height="32px" viewBox="0 0 32 32" version="1.1" xmlns="http://www.w3.org/2000/svg" xmlns:xlink="http://www.w3.org/1999/xlink">
    <!-- Generator: Sketch 53.2 (72643) - https://sketchapp.com -->
    <title>briefcase</title>
    <desc>Created with Sketch.</desc>
    <g id="briefcase" stroke="none" stroke-width="1" fill="none" fill-rule="evenodd">
        <g id="icn-briefcase" transform="translate(2.801147, 2.600000)" fill="#39A2CF">
            <path d="M23.9800756,13.3222642 L2.66445284,13.3222642 L2.66445284,9.32558495 C2.66445284,8.59019597 3.26262251,7.99335853 3.99667927,7.99335853 L22.6478492,7.99335853 C23.3805737,7.99335853 23.9800756,8.59019597 23.9800756,9.32558495 L23.9800756,13.3222642 Z M23.9800756,19.9833963 C23.9800756,20.7187853 23.3805737,21.3156228 22.6478492,21.3156228 L3.99667927,21.3156228 C3.26262251,21.3156228 2.66445284,20.7187853 2.66445284,19.9833963 L2.66445284,14.6544906 L5.32890569,14.6544906 L5.32890569,15.9867171 L9.32558495,15.9867171 L9.32558495,14.6544906 L17.3189435,14.6544906 L17.3189435,15.9867171 L21.3156228,15.9867171 L21.3156228,14.6544906 L23.9800756,14.6544906 L23.9800756,19.9833963 Z M9.32558495,3.99667927 C9.32558495,3.26129028 9.92375462,2.66445284 10.6578114,2.66445284 L15.9867171,2.66445284 C16.7194416,2.66445284 17.3189435,3.26129028 17.3189435,3.99667927 L17.3189435,5.32890569 L9.32558495,5.32890569 L9.32558495,3.99667927 Z M22.6478492,5.32890569 L19.9833963,5.32890569 L19.9833963,3.99667927 C19.9833963,1.79317676 18.1902196,0 15.9867171,0 L10.6578114,0 C8.45297665,0 6.66113211,1.79317676 6.66113211,3.99667927 L6.66113211,5.32890569 L3.99667927,5.32890569 C1.79184454,5.32890569 0,7.12208245 0,9.32558495 L0,19.9833963 C0,22.1868988 1.79184454,23.9800756 3.99667927,23.9800756 L22.6478492,23.9800756 C24.8513517,23.9800756 26.6445284,22.1868988 26.6445284,19.9833963 L26.6445284,9.32558495 C26.6445284,7.12208245 24.8513517,5.32890569 22.6478492,5.32890569 L22.6478492,5.32890569 Z" id="Fill-39"></path>
        </g>
    </g>
</svg>