<?xml version="1.0" encoding="UTF-8"?>
<svg width="32px" height="32px" viewBox="0 0 32 32" version="1.1" xmlns="http://www.w3.org/2000/svg" xmlns:xlink="http://www.w3.org/1999/xlink">
    <!-- Generator: Sketch 53.2 (72643) - https://sketchapp.com -->
    <title>connect</title>
    <desc>Created with Sketch.</desc>
    <g id="connect" stroke="none" stroke-width="1" fill="none" fill-rule="evenodd">
        <g id="icn-connect" transform="translate(2.451328, 3.746949)" fill="#39A2CF">
            <path d="M7.33754781,12.2292463 C9.362711,12.2292463 11.0063217,10.5880815 11.0063217,8.56169536 C11.0063217,6.53530925 9.362711,4.89169854 7.33754781,4.89169854 C5.31116169,4.89169854 3.6687739,6.53530925 3.6687739,8.56169536 C3.6687739,10.5880815 5.31116169,12.2292463 7.33754781,12.2292463" id="Fill-112"></path>
            <path d="M19.5667941,7.33754781 C21.5919573,7.33754781 23.2355681,5.69638295 23.2355681,3.66999683 C23.2355681,1.64361071 21.5919573,0 19.5667941,0 C17.540408,0 15.8980202,1.64361071 15.8980202,3.66999683 C15.8980202,5.69638295 17.540408,7.33754781 19.5667941,7.33754781" id="Fill-113"></path>
            <path d="M13.452171,13.452171 L9.78339707,13.452171 L7.33754781,15.8980202 L4.89169854,13.452171 L1.22292463,13.452171 C0.546647312,13.452171 0,14.0000412 0,14.6750956 L0,22.0126434 L14.6750956,22.0126434 L14.6750956,14.6750956 C14.6750956,14.0000412 14.1272254,13.452171 13.452171,13.452171" id="Fill-114"></path>
            <path d="M25.6814173,8.56047244 L22.0126434,8.56047244 L19.5667941,11.0063217 L17.1209449,8.56047244 L13.452171,8.56047244 C12.7758937,8.56047244 12.2292463,9.10834268 12.2292463,9.78339707 L12.2292463,12.2292463 L13.452171,12.2292463 C14.7998339,12.2292463 15.8980202,13.3262097 15.8980202,14.6750956 L15.8980202,17.1209449 L26.904342,17.1209449 L26.904342,9.78339707 C26.904342,9.10834268 26.3564717,8.56047244 25.6814173,8.56047244" id="Fill-115"></path>
        </g>
    </g>
</svg>