<svg width="257px" height="31px" viewBox="0 0 257 31" version="1.1" xmlns="http://www.w3.org/2000/svg" xmlns:xlink="http://www.w3.org/1999/xlink">
<!-- https://tympanus.net/codrops/2014/08/19/making-svgs-responsive-with-css/ -->
<style>
@media all and (max-width: 46.25em) {
  #live {
      display: none;
  }
  #text {
    display: none;
  }
}
</style>
    <g id="logo" stroke="none" stroke-width="1" fill="none" fill-rule="evenodd">
        <path d="M46.9933687,27.0848806 L39,27.0848806 C40.0397878,26.2307692 40.2997347,22.9973475 40.7546419,17.2015915 L40.8196286,15.8594164 C41.0795756,12.5649867 41.2095491,10.0636605 41.2095491,8.29442971 C41.2095491,6.76923077 41.0145889,5.79310345 40.5596817,5.48806366 L49.5278515,5.48806366 C51.6724138,5.48806366 55.9615385,5.61007958 55.9615385,9.81962865 C55.9615385,12.6259947 53.1671088,14.3342175 50.632626,14.9442971 C54.2068966,15.2493369 56.8713528,16.8965517 56.8713528,20.3740053 C56.8713528,24.0954907 53.1671088,27.0848806 46.9933687,27.0848806 L46.9933687,27.0848806 Z M46.668435,16.6525199 L45.0437666,16.6525199 L44.7838196,19.8249337 C44.6538462,21.2281167 44.5888594,22.3872679 44.5888594,23.7904509 C44.5888594,23.9734748 45.2387268,24.4005305 46.7984085,24.4005305 C49.9827586,24.4005305 52.127321,22.8753316 52.127321,20.4350133 C52.127321,17.6286472 49.6578249,16.6525199 46.668435,16.6525199 L46.668435,16.6525199 Z M47.3832891,8.11140584 C46.928382,8.11140584 46.3435013,8.11140584 45.7586207,8.17241379 C45.4986737,9.69761273 45.3687003,11.1618037 45.2387268,12.7480106 L45.1737401,14.0901857 L45.7586207,14.0901857 C48.6830239,14.0901857 51.3474801,13.1140584 51.3474801,10.6127321 C51.4124668,9.08753316 50.1127321,8.11140584 47.3832891,8.11140584 L47.3832891,8.11140584 Z M75.7175066,27.2679045 C73.7679045,27.2679045 73.637931,27.2068966 72.0132626,22.1432361 L71.428382,20.2519894 C70.4535809,20.6790451 68.7639257,20.862069 66.0994695,20.862069 L63.3700265,20.862069 L62.9151194,21.8381963 C62.4602122,22.8143236 61.2904509,24.8885942 61.2904509,26.1087533 C61.2904509,26.4137931 61.2904509,26.6578249 61.4204244,27.0848806 L55.8965517,27.0848806 C57.4562334,25.6206897 59.4708223,22.1432361 62.265252,16.5915119 L63.8899204,13.3580902 C65.3196286,10.4297082 66.8793103,7.13527851 66.8793103,6.70822281 C66.8793103,6.28116711 66.7493369,5.91511936 66.5543767,5.48806366 L71.5583554,5.48806366 C71.5583554,5.48806366 72.8580902,10.1246684 74.0278515,14.0291777 L75.0026525,17.4456233 C76.6923077,23.1803714 77.7970822,25.9867374 79.2267905,27.0848806 C77.9270557,27.2068966 76.367374,27.2679045 75.7175066,27.2679045 L75.7175066,27.2679045 Z M68.5039788,10.5517241 L64.7997347,18.0557029 L70.8435013,18.0557029 L68.5039788,10.5517241 L68.5039788,10.5517241 Z M97.4880637,28 C95.7984085,28 95.3435013,27.7559682 94.8236074,27.0238727 L88.3899204,18.6657825 C87.8700265,17.994695 87.4801061,17.5066313 86.7002653,17.5066313 L86.5702918,17.5066313 L86.4403183,19.1538462 C86.3103448,21.3501326 86.1803714,23.1193634 86.1803714,24.4615385 C86.1803714,25.9257294 86.3753316,26.7798408 86.8302387,27.1458886 L80.5915119,27.1458886 C81.5013263,26.4137931 81.8262599,23.8514589 82.3461538,17.2625995 L82.4111406,15.9204244 C82.6710875,12.6870027 82.801061,10.1856764 82.801061,8.41644562 C82.801061,6.89124668 82.6061008,5.91511936 82.1511936,5.61007958 L90.5994695,5.61007958 C93.3938992,5.61007958 97.16313,6.03713528 97.16313,10.2466844 C97.16313,13.7241379 94.693634,15.6153846 91.6392573,16.530504 C91.964191,16.7745358 92.4840849,17.4456233 92.8090186,17.8116711 L97.4880637,23.6074271 C100.412467,27.2068966 100.672414,27.3899204 101.712202,27.8779841 C100.34748,27.938992 98.5928382,28 97.4880637,28 L97.4880637,28 Z M89.1697613,8.11140584 C88.5848806,8.11140584 87.9350133,8.11140584 87.4151194,8.17241379 C87.2201592,9.08753316 87.0901857,10.6737401 86.8952255,13.2360743 L86.765252,14.7612732 C87.0901857,14.8222812 87.4801061,14.8222812 87.8050398,14.8222812 C90.6644562,14.8222812 92.6140584,13.1750663 92.6140584,10.734748 C92.6140584,9.08753316 91.3143236,8.11140584 89.1697613,8.11140584 L89.1697613,8.11140584 Z M109.70557,27.4509284 C103.791777,27.4509284 100.34748,22.8753316 100.34748,17.7506631 C100.34748,10.6127321 104.506631,5.06100796 112.370027,5.06100796 C114.839523,5.06100796 116.009284,5.48806366 118.023873,5.48806366 L117.438992,10.9787798 C116.334218,9.0265252 114.449602,7.74535809 111.980106,7.74535809 C107.041114,7.74535809 105.091512,12.7480106 105.091512,17.0185676 C105.091512,21.6551724 107.885942,24.2175066 111.525199,24.2175066 C113.539788,24.2175066 115.29443,23.729443 118.218833,21.7771883 C117.049072,25.3156499 114.254642,27.4509284 109.70557,27.4509284 L109.70557,27.4509284 Z M150.192308,27.2679045 C148.242706,27.2679045 148.112732,27.2068966 146.488064,22.1432361 L145.903183,20.2519894 C144.928382,20.6790451 143.238727,20.862069 140.574271,20.862069 L137.844828,20.862069 L137.38992,21.8381963 C136.675066,23.2413793 135.765252,24.9496021 135.765252,26.1087533 C135.765252,26.4137931 135.765252,26.7188329 135.895225,27.0848806 L119.648541,27.0848806 C120.558355,26.1087533 120.883289,22.9363395 121.338196,17.2015915 L121.403183,15.8594164 C121.66313,12.5649867 121.793103,10.0636605 121.793103,8.29442971 C121.793103,6.83023873 121.598143,5.91511936 121.208223,5.48806366 L127.511936,5.48806366 C126.602122,6.15915119 126.277188,9.57559682 125.887268,15.3103448 L125.757294,16.6525199 C125.627321,18.7877984 125.302387,20.9840849 125.302387,23.0583554 C125.302387,24.0344828 125.692308,24.2785146 126.797082,24.2785146 C130.6313,24.2785146 131.541114,24.2175066 133.295756,23.1193634 C134.335544,21.2891247 135.570292,18.9708223 136.80504,16.530504 L138.429708,13.2970822 C139.924403,10.3076923 141.419098,7.19628647 141.419098,6.64721485 C141.419098,6.22015915 141.289125,5.85411141 141.094164,5.4270557 L146.098143,5.4270557 C146.098143,5.4270557 148.112732,12.4429708 148.567639,13.9681698 L149.54244,17.3846154 C151.232095,23.1193634 152.33687,25.9257294 153.766578,27.0238727 C152.53183,27.2068966 150.842175,27.2679045 150.192308,27.2679045 L150.192308,27.2679045 Z M142.97878,10.5517241 L139.274536,18.0557029 L145.253316,18.0557029 L142.97878,10.5517241 L142.97878,10.5517241 Z M164.619363,15.4323607 C164.099469,16.2864721 163.384615,17.3846154 162.994695,18.2387268 C162.669761,19.8249337 162.474801,21.9602122 162.474801,24.2785146 C162.474801,25.2546419 162.669761,26.596817 163.124668,27.0238727 L156.885942,27.0238727 C157.990716,26.0477454 158.445623,20.0689655 158.380637,18.1167109 C157.535809,15.4323607 156.431034,12.8090186 154.676393,9.63660477 C153.571618,7.68435013 152.271883,5.79310345 151.492042,5.4270557 C152.921751,5.30503979 154.676393,5.24403183 155.52122,5.24403183 C157.080902,5.24403183 157.470822,5.4270557 158.445623,7.37931034 C159.940318,10.5517241 161.045093,12.9310345 161.69496,14.7002653 C163.254642,12.3819629 164.359416,10.795756 165.789125,8.5994695 C166.114058,8.05039788 166.438992,7.37931034 166.438992,6.76923077 C166.438992,6.28116711 166.374005,5.73209549 166.114058,5.4270557 L172.287798,5.4270557 C171.118037,5.73209549 165.724138,13.66313 164.619363,15.4323607 L164.619363,15.4323607 Z M185.415119,10.6127321 C184.440318,8.96551724 182.425729,7.74535809 180.151194,7.74535809 C178.201592,7.74535809 176.44695,8.47745358 176.44695,10.4297082 C176.44695,12.0769231 178.591512,13.1750663 180.866048,14.5782493 C183.335544,16.0424403 185.870027,17.8116711 185.870027,20.9230769 C185.870027,24.9496021 181.645889,27.4509284 176.83687,27.4509284 C174.822281,27.4509284 172.742706,27.0848806 170.403183,26.2307692 L170.793103,20.862069 C171.897878,22.9973475 174.04244,24.7055703 177.161804,24.7055703 C179.566313,24.7055703 181.385942,23.6074271 181.385942,21.7161804 C181.385942,20.0689655 179.956233,19.0928382 178.136605,18.0557029 C174.367374,15.9204244 172.027851,14.2122016 172.027851,11.1618037 C172.027851,6.52519894 176.122016,5 180.411141,5 C182.880637,5 184.440318,5.4270557 186,5.4270557 L185.415119,10.6127321 L185.415119,10.6127321 Z" id="text" fill="#FFFFFF">
        </path>
        <path d="M31.9311348,10.9273859 C31.7934044,9.48340249 31.3113479,8.09958506 30.7604261,7.19709544 C30.3472349,6.53526971 29.8651784,5.81327801 29.107661,5.27178423 C28.6944697,4.97095436 28.2124132,4.73029046 27.5926263,4.60995851 C27.179435,4.48962656 26.6973785,4.42946058 26.1464568,4.42946058 C25.251209,4.42946058 24.287096,4.67012448 23.667309,5.33195021 C22.9786569,6.05394191 23.1852525,7.31742739 24.2182308,7.61825726 L24.2182308,7.61825726 C24.0805003,7.85892116 23.5295786,8.40041494 21.9456787,8.40041494 C21.1192961,8.40041494 20.430644,8.21991701 19.6731266,7.31742739 C19.1222049,6.71576763 18.9844745,5.57261411 18.9844745,4.36929461 C18.9844745,3.6473029 18.846744,3.10580913 18.6401484,2.50414938 C18.502418,2.08298755 18.2269571,1.84232365 17.9514962,1.60165975 C17.6760354,1.42116183 17.4694397,1.30082988 16.9873832,1.18049793 C16.4364615,1 15.7478094,1 15.3346181,1 C14.5082355,1 14.3016399,1.06016598 13.9573138,1.42116183 C13.3375269,1.36099585 12.8554704,1.42116183 12.5111443,1.4813278 C11.8224922,1.60165975 11.4093009,1.84232365 11.13384,2.02282158 C10.9272444,2.14315353 10.5829183,2.4439834 10.5140531,2.80497925 C10.5140531,2.86514523 10.4451879,2.9253112 10.4451879,2.98547718 L10.4451879,3.22614108 C10.4451879,3.28630705 10.4451879,3.34647303 10.5140531,3.406639 C10.5140531,3.46680498 10.5829183,3.52697095 10.5829183,3.52697095 C11.2027052,2.9253112 13.1309312,3.22614108 13.6129877,3.8879668 C14.0950442,4.48962656 14.026179,5.09128631 13.9573138,5.69294606 C13.8195834,6.59543568 13.3375269,8.03941909 11.4781661,8.28008299 C10.7206487,8.40041494 9.34334444,8.40041494 8.72355751,7.61825726 L8.72355751,7.61825726 L8.72355751,7.61825726 C9.89426615,7.25726141 10.0319966,5.99377593 9.34334444,5.27178423 C8.24150101,4.18879668 6.45100543,4.30912863 5.41802721,4.54979253 C3.76526206,4.97095436 2.80114906,6.17427386 2.25022735,7.19709544 C1.63044042,8.28008299 1.28611434,9.66390041 1.0795187,10.9273859 C0.941788271,12.2510373 1.01065349,13.3941909 1.0795187,14.4771784 C1.21724913,16.2219917 1.5615752,17.2448133 2.0436317,18.3879668 C2.59455342,19.5311203 3.14547513,20.6141079 3.83412728,21.5767635 C4.31618378,22.2385892 4.385049,22.3589212 4.52277942,22.3589212 C4.59164464,22.3589212 4.59164464,22.2987552 5.07370114,21.8775934 C5.349162,21.6369295 6.10667936,20.7946058 6.313275,20.4937759 C6.51987064,20.253112 6.93306193,19.7116183 7.13965757,19.2904564 C7.34625322,19.4107884 7.41511843,19.6514523 7.41511843,19.8319502 C7.41511843,20.0726141 7.34625322,20.373444 7.13965757,20.9149378 C6.93306193,21.4564315 6.65760107,22.1784232 6.24440979,22.840249 C5.90008371,23.3817427 5.55575764,23.8029046 5.90008371,24.0435685 C6.17554457,24.2240664 6.7953315,23.8630705 7.00192715,23.6825726 C7.20852279,23.5020747 8.10377058,22.9004149 9.13674879,21.6369295 C9.89426615,20.7344398 10.5140531,19.8319502 11.0649748,18.7489627 C11.13384,18.7489627 11.2027052,18.8091286 11.2027052,18.8692946 C11.2715704,18.9896266 11.3404357,19.1701245 11.2715704,19.4107884 C11.2027052,19.9522822 10.8583792,20.7344398 10.4451879,21.6970954 C9.89426615,22.780083 8.99901836,23.9834025 8.03490536,25.126556 C7.89717493,25.246888 7.69057929,25.4273859 7.69057929,25.5477178 C7.69057929,25.6078838 7.89717493,25.7282158 8.51696186,26.2095436 C9.48107487,26.9315353 10.5140531,27.533195 11.9602226,28.2551867 C13.1309312,28.8568465 15.1280225,29.6991701 16.4364615,30 C17.7449006,29.6991701 19.7419918,28.8568465 20.9127005,28.2551867 C22.35887,27.533195 23.3918482,26.9315353 24.3559612,26.2095436 C24.9757481,25.7883817 25.1823438,25.6680498 25.1823438,25.5477178 C25.1823438,25.4273859 24.9757481,25.246888 24.8380177,25.126556 C23.8739047,24.0435685 22.9097917,22.780083 22.4277352,21.6970954 C21.9456787,20.7344398 21.6702178,19.9522822 21.6013526,19.4107884 C21.5324874,19.1701245 21.6013526,18.9896266 21.6702178,18.8692946 C21.6702178,18.8091286 21.739083,18.7489627 21.8079483,18.7489627 C22.4277352,19.8319502 22.9786569,20.7344398 23.7361743,21.6369295 C24.7691525,22.9004149 25.6644003,23.5622407 25.8709959,23.6825726 C26.0775916,23.8630705 26.6973785,24.2240664 26.9728393,24.0435685 C27.3171654,23.8029046 26.9728393,23.4419087 26.6285133,22.840249 C26.215322,22.1784232 25.8709959,21.4564315 25.7332655,20.9149378 C25.5955351,20.43361 25.5266698,20.1327801 25.4578046,19.8319502 C25.4578046,19.5912863 25.5266698,19.4107884 25.7332655,19.2904564 C25.9398611,19.7116183 26.3530524,20.1929461 26.5596481,20.4937759 C26.7662437,20.7946058 27.5237611,21.6369295 27.7992219,21.8775934 C28.2812784,22.2987552 28.2812784,22.3589212 28.3501436,22.3589212 C28.4190088,22.3589212 28.5567393,22.1784232 29.0387958,21.5767635 C29.7274479,20.5539419 30.3472349,19.4709544 30.7604261,18.3879668 C31.2424826,17.2448133 31.5868087,16.2219917 31.7245391,14.4771784 C32,13.3941909 32.0688652,12.2510373 31.9311348,10.9273859 L31.9311348,10.9273859 Z" id="Shape" fill="#FFFFFF"></path>
        <text id="live" font-family="SourceSansPro-Light, Source Sans Pro" font-size="34" font-weight="300" fill="#FFFFFF">
            <tspan x="198" y="27">LIVE</tspan>
        </text>
    </g>
</svg>