<svg
  width="200px"
  height="31px"
  viewBox="0 0 200 31"
>
  <g
    id="logo"
    stroke="none"
    stroke-width="1"
    fill="none"
    fill-rule="evenodd"
  >
    <g
      transform="translate(1.000000, -6.000000)"
      fill="#00AEEF"
    >
      <path
        d="M45.9933687,33.0848806 L38,33.0848806 C39.0397878,32.2307692 39.2997347,28.9973475 39.7546419,23.2015915 L39.8196286,21.8594164 C40.0795756,18.5649867 40.2095491,16.0636605 40.2095491,14.2944297 C40.2095491,12.7692308 40.0145889,11.7931034 39.5596817,11.4880637 L48.5278515,11.4880637 C50.6724138,11.4880637 54.9615385,11.6100796 54.9615385,15.8196286 C54.9615385,18.6259947 52.1671088,20.3342175 49.632626,20.9442971 C53.2068966,21.2493369 55.8713528,22.8965517 55.8713528,26.3740053 C55.8713528,30.0954907 52.1671088,33.0848806 45.9933687,33.0848806 L45.9933687,33.0848806 Z M45.668435,22.6525199 L44.0437666,22.6525199 L43.7838196,25.8249337 C43.6538462,27.2281167 43.5888594,28.3872679 43.5888594,29.7904509 C43.5888594,29.9734748 44.2387268,30.4005305 45.7984085,30.4005305 C48.9827586,30.4005305 51.127321,28.8753316 51.127321,26.4350133 C51.127321,23.6286472 48.6578249,22.6525199 45.668435,22.6525199 L45.668435,22.6525199 Z M46.3832891,14.1114058 C45.928382,14.1114058 45.3435013,14.1114058 44.7586207,14.1724138 C44.4986737,15.6976127 44.3687003,17.1618037 44.2387268,18.7480106 L44.1737401,20.0901857 L44.7586207,20.0901857 C47.6830239,20.0901857 50.3474801,19.1140584 50.3474801,16.6127321 C50.4124668,15.0875332 49.1127321,14.1114058 46.3832891,14.1114058 L46.3832891,14.1114058 Z M74.7175066,33.2679045 C72.7679045,33.2679045 72.637931,33.2068966 71.0132626,28.1432361 L70.428382,26.2519894 C69.4535809,26.6790451 67.7639257,26.862069 65.0994695,26.862069 L62.3700265,26.862069 L61.9151194,27.8381963 C61.4602122,28.8143236 60.2904509,30.8885942 60.2904509,32.1087533 C60.2904509,32.4137931 60.2904509,32.6578249 60.4204244,33.0848806 L54.8965517,33.0848806 C56.4562334,31.6206897 58.4708223,28.1432361 61.265252,22.5915119 L62.8899204,19.3580902 C64.3196286,16.4297082 65.8793103,13.1352785 65.8793103,12.7082228 C65.8793103,12.2811671 65.7493369,11.9151194 65.5543767,11.4880637 L70.5583554,11.4880637 C70.5583554,11.4880637 71.8580902,16.1246684 73.0278515,20.0291777 L74.0026525,23.4456233 C75.6923077,29.1803714 76.7970822,31.9867374 78.2267905,33.0848806 C76.9270557,33.2068966 75.367374,33.2679045 74.7175066,33.2679045 L74.7175066,33.2679045 Z M67.5039788,16.5517241 L63.7997347,24.0557029 L69.8435013,24.0557029 L67.5039788,16.5517241 L67.5039788,16.5517241 Z M96.4880637,34 C94.7984085,34 94.3435013,33.7559682 93.8236074,33.0238727 L87.3899204,24.6657825 C86.8700265,23.994695 86.4801061,23.5066313 85.7002653,23.5066313 L85.5702918,23.5066313 L85.4403183,25.1538462 C85.3103448,27.3501326 85.1803714,29.1193634 85.1803714,30.4615385 C85.1803714,31.9257294 85.3753316,32.7798408 85.8302387,33.1458886 L79.5915119,33.1458886 C80.5013263,32.4137931 80.8262599,29.8514589 81.3461538,23.2625995 L81.4111406,21.9204244 C81.6710875,18.6870027 81.801061,16.1856764 81.801061,14.4164456 C81.801061,12.8912467 81.6061008,11.9151194 81.1511936,11.6100796 L89.5994695,11.6100796 C92.3938992,11.6100796 96.16313,12.0371353 96.16313,16.2466844 C96.16313,19.7241379 93.693634,21.6153846 90.6392573,22.530504 C90.964191,22.7745358 91.4840849,23.4456233 91.8090186,23.8116711 L96.4880637,29.6074271 C99.4124668,33.2068966 99.6724138,33.3899204 100.712202,33.8779841 C99.3474801,33.938992 97.5928382,34 96.4880637,34 L96.4880637,34 Z M88.1697613,14.1114058 C87.5848806,14.1114058 86.9350133,14.1114058 86.4151194,14.1724138 C86.2201592,15.0875332 86.0901857,16.6737401 85.8952255,19.2360743 L85.765252,20.7612732 C86.0901857,20.8222812 86.4801061,20.8222812 86.8050398,20.8222812 C89.6644562,20.8222812 91.6140584,19.1750663 91.6140584,16.734748 C91.6140584,15.0875332 90.3143236,14.1114058 88.1697613,14.1114058 L88.1697613,14.1114058 Z M108.70557,33.4509284 C102.791777,33.4509284 99.3474801,28.8753316 99.3474801,23.7506631 C99.3474801,16.6127321 103.506631,11.061008 111.370027,11.061008 C113.839523,11.061008 115.009284,11.4880637 117.023873,11.4880637 L116.438992,16.9787798 C115.334218,15.0265252 113.449602,13.7453581 110.980106,13.7453581 C106.041114,13.7453581 104.091512,18.7480106 104.091512,23.0185676 C104.091512,27.6551724 106.885942,30.2175066 110.525199,30.2175066 C112.539788,30.2175066 114.29443,29.729443 117.218833,27.7771883 C116.049072,31.3156499 113.254642,33.4509284 108.70557,33.4509284 L108.70557,33.4509284 Z M149.192308,33.2679045 C147.242706,33.2679045 147.112732,33.2068966 145.488064,28.1432361 L144.903183,26.2519894 C143.928382,26.6790451 142.238727,26.862069 139.574271,26.862069 L136.844828,26.862069 L136.38992,27.8381963 C135.675066,29.2413793 134.765252,30.9496021 134.765252,32.1087533 C134.765252,32.4137931 134.765252,32.7188329 134.895225,33.0848806 L118.648541,33.0848806 C119.558355,32.1087533 119.883289,28.9363395 120.338196,23.2015915 L120.403183,21.8594164 C120.66313,18.5649867 120.793103,16.0636605 120.793103,14.2944297 C120.793103,12.8302387 120.598143,11.9151194 120.208223,11.4880637 L126.511936,11.4880637 C125.602122,12.1591512 125.277188,15.5755968 124.887268,21.3103448 L124.757294,22.6525199 C124.627321,24.7877984 124.302387,26.9840849 124.302387,29.0583554 C124.302387,30.0344828 124.692308,30.2785146 125.797082,30.2785146 C129.6313,30.2785146 130.541114,30.2175066 132.295756,29.1193634 C133.335544,27.2891247 134.570292,24.9708223 135.80504,22.530504 L137.429708,19.2970822 C138.924403,16.3076923 140.419098,13.1962865 140.419098,12.6472149 C140.419098,12.2201592 140.289125,11.8541114 140.094164,11.4270557 L145.098143,11.4270557 C145.098143,11.4270557 147.112732,18.4429708 147.567639,19.9681698 L148.54244,23.3846154 C150.232095,29.1193634 151.33687,31.9257294 152.766578,33.0238727 C151.53183,33.2068966 149.842175,33.2679045 149.192308,33.2679045 L149.192308,33.2679045 Z M141.97878,16.5517241 L138.274536,24.0557029 L144.253316,24.0557029 L141.97878,16.5517241 L141.97878,16.5517241 Z M163.619363,21.4323607 C163.099469,22.2864721 162.384615,23.3846154 161.994695,24.2387268 C161.669761,25.8249337 161.474801,27.9602122 161.474801,30.2785146 C161.474801,31.2546419 161.669761,32.596817 162.124668,33.0238727 L155.885942,33.0238727 C156.990716,32.0477454 157.445623,26.0689655 157.380637,24.1167109 C156.535809,21.4323607 155.431034,18.8090186 153.676393,15.6366048 C152.571618,13.6843501 151.271883,11.7931034 150.492042,11.4270557 C151.921751,11.3050398 153.676393,11.2440318 154.52122,11.2440318 C156.080902,11.2440318 156.470822,11.4270557 157.445623,13.3793103 C158.940318,16.5517241 160.045093,18.9310345 160.69496,20.7002653 C162.254642,18.3819629 163.359416,16.795756 164.789125,14.5994695 C165.114058,14.0503979 165.438992,13.3793103 165.438992,12.7692308 C165.438992,12.2811671 165.374005,11.7320955 165.114058,11.4270557 L171.287798,11.4270557 C170.118037,11.7320955 164.724138,19.66313 163.619363,21.4323607 L163.619363,21.4323607 Z M184.415119,16.6127321 C183.440318,14.9655172 181.425729,13.7453581 179.151194,13.7453581 C177.201592,13.7453581 175.44695,14.4774536 175.44695,16.4297082 C175.44695,18.0769231 177.591512,19.1750663 179.866048,20.5782493 C182.335544,22.0424403 184.870027,23.8116711 184.870027,26.9230769 C184.870027,30.9496021 180.645889,33.4509284 175.83687,33.4509284 C173.822281,33.4509284 171.742706,33.0848806 169.403183,32.2307692 L169.793103,26.862069 C170.897878,28.9973475 173.04244,30.7055703 176.161804,30.7055703 C178.566313,30.7055703 180.385942,29.6074271 180.385942,27.7161804 C180.385942,26.0689655 178.956233,25.0928382 177.136605,24.0557029 C173.367374,21.9204244 171.027851,20.2122016 171.027851,17.1618037 C171.027851,12.5251989 175.122016,11 179.411141,11 C181.880637,11 183.440318,11.4270557 185,11.4270557 L184.415119,16.6127321 L184.415119,16.6127321 Z"
        id="Shape"
      ></path>
      <path
        d="M30.9311348,16.9273859 C30.7934044,15.4834025 30.3113479,14.0995851 29.7604261,13.1970954 C29.3472349,12.5352697 28.8651784,11.813278 28.107661,11.2717842 C27.6944697,10.9709544 27.2124132,10.7302905 26.5926263,10.6099585 C26.179435,10.4896266 25.6973785,10.4294606 25.1464568,10.4294606 C24.251209,10.4294606 23.287096,10.6701245 22.667309,11.3319502 C21.9786569,12.0539419 22.1852525,13.3174274 23.2182308,13.6182573 L23.2182308,13.6182573 C23.0805003,13.8589212 22.5295786,14.4004149 20.9456787,14.4004149 C20.1192961,14.4004149 19.430644,14.219917 18.6731266,13.3174274 C18.1222049,12.7157676 17.9844745,11.5726141 17.9844745,10.3692946 C17.9844745,9.6473029 17.846744,9.10580913 17.6401484,8.50414938 C17.502418,8.08298755 17.2269571,7.84232365 16.9514962,7.60165975 C16.6760354,7.42116183 16.4694397,7.30082988 15.9873832,7.18049793 C15.4364615,7 14.7478094,7 14.3346181,7 C13.5082355,7 13.3016399,7.06016598 12.9573138,7.42116183 C12.3375269,7.36099585 11.8554704,7.42116183 11.5111443,7.4813278 C10.8224922,7.60165975 10.4093009,7.84232365 10.13384,8.02282158 C9.92724437,8.14315353 9.5829183,8.4439834 9.51405308,8.80497925 C9.51405308,8.86514523 9.44518787,8.9253112 9.44518787,8.98547718 L9.44518787,9.22614108 C9.44518787,9.28630705 9.44518787,9.34647303 9.51405308,9.406639 C9.51405308,9.46680498 9.5829183,9.52697095 9.5829183,9.52697095 C10.2027052,8.9253112 12.1309312,9.22614108 12.6129877,9.8879668 C13.0950442,10.4896266 13.026179,11.0912863 12.9573138,11.6929461 C12.8195834,12.5954357 12.3375269,14.0394191 10.4781661,14.280083 C9.72064873,14.4004149 8.34334444,14.4004149 7.72355751,13.6182573 L7.72355751,13.6182573 L7.72355751,13.6182573 C8.89426615,13.2572614 9.03199658,11.9937759 8.34334444,11.2717842 C7.24150101,10.1887967 5.45100543,10.3091286 4.41802721,10.5497925 C2.76526206,10.9709544 1.80114906,12.1742739 1.25022735,13.1970954 C0.630440416,14.280083 0.286114344,15.6639004 0.0795187002,16.9273859 C-0.0582117287,18.2510373 0.0106534858,19.3941909 0.0795187002,20.4771784 C0.217249129,22.2219917 0.561575202,23.2448133 1.0436317,24.3879668 C1.59455342,25.5311203 2.14547513,26.6141079 2.83412728,27.5767635 C3.31618378,28.2385892 3.385049,28.3589212 3.52277942,28.3589212 C3.59164464,28.3589212 3.59164464,28.2987552 4.07370114,27.8775934 C4.349162,27.6369295 5.10667936,26.7946058 5.313275,26.4937759 C5.51987064,26.253112 5.93306193,25.7116183 6.13965757,25.2904564 C6.34625322,25.4107884 6.41511843,25.6514523 6.41511843,25.8319502 C6.41511843,26.0726141 6.34625322,26.373444 6.13965757,26.9149378 C5.93306193,27.4564315 5.65760107,28.1784232 5.24440979,28.840249 C4.90008371,29.3817427 4.55575764,29.8029046 4.90008371,30.0435685 C5.17554457,30.2240664 5.7953315,29.8630705 6.00192715,29.6825726 C6.20852279,29.5020747 7.10377058,28.9004149 8.13674879,27.6369295 C8.89426615,26.7344398 9.51405308,25.8319502 10.0649748,24.7489627 C10.13384,24.7489627 10.2027052,24.8091286 10.2027052,24.8692946 C10.2715704,24.9896266 10.3404357,25.1701245 10.2715704,25.4107884 C10.2027052,25.9522822 9.85837916,26.7344398 9.44518787,27.6970954 C8.89426615,28.780083 7.99901836,29.9834025 7.03490536,31.126556 C6.89717493,31.246888 6.69057929,31.4273859 6.69057929,31.5477178 C6.69057929,31.6078838 6.89717493,31.7282158 7.51696186,32.2095436 C8.48107487,32.9315353 9.51405308,33.533195 10.9602226,34.2551867 C12.1309312,34.8568465 14.1280225,35.6991701 15.4364615,36 C16.7449006,35.6991701 18.7419918,34.8568465 19.9127005,34.2551867 C21.35887,33.533195 22.3918482,32.9315353 23.3559612,32.2095436 C23.9757481,31.7883817 24.1823438,31.6680498 24.1823438,31.5477178 C24.1823438,31.4273859 23.9757481,31.246888 23.8380177,31.126556 C22.8739047,30.0435685 21.9097917,28.780083 21.4277352,27.6970954 C20.9456787,26.7344398 20.6702178,25.9522822 20.6013526,25.4107884 C20.5324874,25.1701245 20.6013526,24.9896266 20.6702178,24.8692946 C20.6702178,24.8091286 20.739083,24.7489627 20.8079483,24.7489627 C21.4277352,25.8319502 21.9786569,26.7344398 22.7361743,27.6369295 C23.7691525,28.9004149 24.6644003,29.5622407 24.8709959,29.6825726 C25.0775916,29.8630705 25.6973785,30.2240664 25.9728393,30.0435685 C26.3171654,29.8029046 25.9728393,29.4419087 25.6285133,28.840249 C25.215322,28.1784232 24.8709959,27.4564315 24.7332655,26.9149378 C24.5955351,26.43361 24.5266698,26.1327801 24.4578046,25.8319502 C24.4578046,25.5912863 24.5266698,25.4107884 24.7332655,25.2904564 C24.9398611,25.7116183 25.3530524,26.1929461 25.5596481,26.4937759 C25.7662437,26.7946058 26.5237611,27.6369295 26.7992219,27.8775934 C27.2812784,28.2987552 27.2812784,28.3589212 27.3501436,28.3589212 C27.4190088,28.3589212 27.5567393,28.1784232 28.0387958,27.5767635 C28.7274479,26.5539419 29.3472349,25.4709544 29.7604261,24.3879668 C30.2424826,23.2448133 30.5868087,22.2219917 30.7245391,20.4771784 C31,19.3941909 31.0688652,18.2510373 30.9311348,16.9273859 L30.9311348,16.9273859 Z"
        id="Shape"
      ></path>
      <text
        id="LIVE"
        font-family="SourceSansPro-Light, Source Sans Pro"
        font-size="34"
        font-weight="300"
        color="#00aeef"
        color="rgb(0, 174, 239)"
      >
        <tspan x="197" y="33">LIVE</tspan>
      </text>
    </g>
  </g>
</svg>