<?xml version="1.0" encoding="UTF-8"?>
<svg width="32px" height="32px" viewBox="0 0 32 32" version="1.1" xmlns="http://www.w3.org/2000/svg" xmlns:xlink="http://www.w3.org/1999/xlink">
    <!-- Generator: Sketch 53.2 (72643) - https://sketchapp.com -->
    <title>search</title>
    <desc>Created with Sketch.</desc>
    <g id="search" stroke="none" stroke-width="1" fill="none" fill-rule="evenodd">
        <path d="M18.6943788,16.9045647 L18.6943788,22.6143344 L25.4104954,29.72728 C26.2626785,30.5808905 27.6458702,30.5808905 28.5023357,29.72728 C29.3530914,28.8736694 29.3530914,27.4904777 28.5023357,26.6354397 L18.6943788,16.9045647 Z" id="Fill-224" fill="#39A2CF"></path>
        <path d="M11.5571667,17.6182859 C8.40822877,17.6182859 5.84739708,15.0574542 5.84739708,11.9085163 C5.84739708,8.75957828 8.40822877,6.19874659 11.5571667,6.19874659 C14.7061047,6.19874659 17.2669364,8.75957828 17.2669364,11.9085163 C17.2669364,15.0574542 14.7061047,17.6182859 11.5571667,17.6182859 Z M2.99251224,11.9085163 C2.99251224,16.6319232 6.83375979,20.4731708 11.5571667,20.4731708 C16.2791463,20.4731708 20.1218213,16.6319232 20.1218213,11.9085163 C20.1218213,7.1851093 16.2791463,3.34386175 11.5571667,3.34386175 C6.83375979,3.34386175 2.99251224,7.1851093 2.99251224,11.9085163 Z" id="Fill-225" fill="#39A2CF"></path>
    </g>
</svg>