<?xml version="1.0" encoding="UTF-8"?>
<svg width="32px" height="32px" viewBox="0 0 32 32" version="1.1" xmlns="http://www.w3.org/2000/svg" xmlns:xlink="http://www.w3.org/1999/xlink">
    <!-- Generator: Sketch 53.2 (72643) - https://sketchapp.com -->
    <title>watchlist</title>
    <desc>Created with Sketch.</desc>
    <g id="watchlist" stroke="none" stroke-width="1" fill="none" fill-rule="evenodd">
        <g id="icn-watch" transform="translate(0.000000, 6.767578)" fill="#39A2CF">
            <path d="M21.1346667,15.46 C22.884,13.9906667 24,11.7906667 24,9.33333333 C24,6.896 22.9013333,4.71466667 21.1773333,3.24666667 C25.0533333,4.956 28.1,8.05866667 29.2866667,9.38933333 C28.0933333,10.7093333 25.032,13.7813333 21.1346667,15.46 Z M2.71333333,9.38666667 C3.89866667,8.05466667 6.94533333,4.94933333 10.8266667,3.24133333 C9.1,4.70933333 8,6.89333333 8,9.33333333 C8,11.7866667 9.112,13.984 10.856,15.452 C6.96666667,13.7733333 3.908,10.7053333 2.71333333,9.38666667 Z M16,16.2666667 C12.176,16.2666667 9.06533333,13.1573333 9.06533333,9.33333333 C9.06533333,5.50933333 12.176,2.4 16,2.4 C19.8226667,2.4 22.9333333,5.50933333 22.9333333,9.33333333 C22.9333333,13.1573333 19.8226667,16.2666667 16,16.2666667 Z M31.5053333,8.76666667 C31.2253333,8.40933333 24.524,0 16.0013333,0 C7.47466667,0 0.776,8.40933333 0.494666667,8.76666667 L0,9.39866667 L0.498666667,10.0253333 C0.78,10.3773333 7.48,18.6666667 16.0013333,18.6666667 C24.52,18.6666667 31.22,10.3773333 31.5013333,10.0253333 L32,9.39866667 L31.5053333,8.76666667 L31.5053333,8.76666667 Z" id="Fill-217"></path>
            <path d="M16,6.66666667 C14.524,6.66666667 13.3333333,7.86133333 13.3333333,9.33333333 C13.3333333,10.8066667 14.524,12 16,12 C17.472,12 18.6666667,10.8066667 18.6666667,9.33333333 C18.6666667,7.86133333 17.472,6.66666667 16,6.66666667" id="Fill-218"></path>
        </g>
    </g>
</svg>